<svg xmlns="http://www.w3.org/2000/svg" viewBox="0 0 64 64">
  <!-- Truck body -->
  <rect x="4" y="20" width="36" height="22" rx="3" fill="#3d5a80"/>
  <!-- Cab -->
  <path d="M40 26h12a4 4 0 0 1 4 4v12H40V26z" fill="#5b8fb9"/>
  <!-- Windshield -->
  <path d="M43 28h7a3 3 0 0 1 3 3v5h-10V28z" fill="#d4c5a9" opacity="0.7"/>
  <!-- Bumper -->
  <rect x="54" y="38" width="6" height="4" rx="1" fill="#a0785a"/>
  <!-- Undercarriage -->
  <rect x="2" y="42" width="58" height="4" rx="2" fill="#2d3436"/>
  <!-- Wheels -->
  <circle cx="16" cy="46" r="6" fill="#2d3436"/>
  <circle cx="16" cy="46" r="3" fill="#888"/>
  <circle cx="48" cy="46" r="6" fill="#2d3436"/>
  <circle cx="48" cy="46" r="3" fill="#888"/>
  <!-- Box on truck -->
  <rect x="10" y="23" width="12" height="10" rx="1" fill="#a0785a" opacity="0.6"/>
  <rect x="24" y="26" width="10" height="7" rx="1" fill="#6b8f71" opacity="0.6"/>
</svg>
